<svg width="295" height="59" fill="none" xmlns="http://www.w3.org/2000/svg"><path d="M41.818 48.83L2.338 21.599c-4-2.76-2.64-8.506 2.349-9.857L46.647.353a5.942 5.942 0 017.957 5.484l-2.487 38.619c-.295 4.584-6.298 7.134-10.299 4.375z" fill="#E9327C"/><path d="M29.296 55.553L6.038 10.068A6.344 6.344 0 0112.655.911L55.76 7.564a6.344 6.344 0 014.68 9.159L40.585 55.555a6.344 6.344 0 01-11.288-.002z" fill="#1DACE3"/><path d="M54.498 7.368L33.011 4.052 6.63 11.215l10.53 20.6 24.658 17.016a6.356 6.356 0 001.774.842l9.366-18.316 1.54-23.989z" fill="#3A68B8"/><path d="M163.335 12.685a4.036 4.036 0 014.826-3.96 4.042 4.042 0 013.173 3.172 4.034 4.034 0 01-1.717 4.146 4.04 4.04 0 01-2.244.68 4.08 4.08 0 01-4.038-4.038zm.674 6.012h6.731V41.13h-6.731V18.697zm35.802 11.217a11.274 11.274 0 01-2.898 8.153 11.257 11.257 0 01-7.824 3.693 8.424 8.424 0 01-6.685-2.738v11.083h-6.73V18.697h6.73v2.108a8.418 8.418 0 016.685-2.735 11.266 11.266 0 0110.087 7.479 11.27 11.27 0 01.635 4.365zm-6.73 0a5.336 5.336 0 00-3.389-4.838 5.342 5.342 0 10-1.95 10.313 5.124 5.124 0 005.039-3.354 5.124 5.124 0 00.3-2.121zm27.502 4.483c0 5.16-4.487 7.359-9.333 7.359a9.821 9.821 0 01-9.645-5.341l5.831-3.319a3.683 3.683 0 003.814 2.64c1.615 0 2.421-.494 2.421-1.39 0-2.469-11.037-1.166-11.037-8.93 0-4.89 4.127-7.357 8.803-7.357a9.812 9.812 0 018.748 4.8l-5.742 3.096a3.256 3.256 0 00-3.006-1.98c-1.166 0-1.884.44-1.884 1.256-.006 2.575 11.03.87 11.03 9.166zm24.596-15.7V41.13h-6.729v-2.113a7.687 7.687 0 01-6.417 2.738c-4.532 0-8.389-3.23-8.389-9.289v-13.77h6.729v12.789a3.703 3.703 0 003.904 4.082c2.467 0 4.181-1.435 4.181-4.622V18.697h6.721zm38.573 8.657V41.13h-6.73V27.94c0-2.243-1.078-3.68-3.23-3.68-2.245 0-3.499 1.571-3.499 4.218V41.13h-6.732V27.94c0-2.243-1.076-3.68-3.23-3.68-2.243 0-3.499 1.571-3.499 4.218V41.13h-6.73V18.697h6.74v2.055a6.894 6.894 0 016.013-2.691 6.68 6.68 0 015.878 2.96 7.386 7.386 0 016.507-2.96c5.149.008 8.512 3.686 8.512 9.293zm5.702-8.796a4.995 4.995 0 100-9.99 4.995 4.995 0 000 9.99zm-218-10.18h6.732V41.13h-6.732V8.378zm10.543 21.536A11.884 11.884 0 1193.881 41.76a11.757 11.757 0 01-11.884-11.846zm17.051 0a5.16 5.16 0 10-5.16 5.294 5.032 5.032 0 005.169-5.294h-.009zm33.558-11.224v21.314c0 7.537-5.878 10.721-11.844 10.721a11.47 11.47 0 01-10.634-5.429l5.742-3.32a5.123 5.123 0 005.116 2.827 4.474 4.474 0 005.062-4.8V37.94a7.976 7.976 0 01-6.552 2.916 11.401 11.401 0 010-22.792 7.968 7.968 0 016.552 2.916v-2.29h6.558zm-6.55 10.768a5.428 5.428 0 00-3.197-5.178 5.437 5.437 0 00-7.548 3.812 5.44 5.44 0 002.27 5.647 5.435 5.435 0 003.042.932 5.077 5.077 0 005.433-5.206v-.007zm10.361.44a11.881 11.881 0 017.31-11.005 11.883 11.883 0 114.573 22.851 11.762 11.762 0 01-10.997-7.28 11.743 11.743 0 01-.886-4.55v-.016zm17.051 0a5.163 5.163 0 10-5.161 5.295 5.03 5.03 0 004.84-3.247 5.03 5.03 0 00.321-2.032v-.016z" fill="#fff"/></svg>